<?xml version="1.0" encoding="UTF-8" standalone="no"?>
<!-- Created with Inkscape (http://www.inkscape.org/) -->

<svg
   width="296"
   height="128"
   viewBox="0 0 78.316665 33.866666"
   version="1.1"
   id="svg1"
   inkscape:export-filename="daniel.png"
   inkscape:export-xdpi="96"
   inkscape:export-ydpi="96"
   inkscape:version="1.3.2 (091e20ef0f, 2023-11-25)"
   sodipodi:docname="drawing.svg"
   xml:space="preserve"
   xmlns:inkscape="http://www.inkscape.org/namespaces/inkscape"
   xmlns:sodipodi="http://sodipodi.sourceforge.net/DTD/sodipodi-0.dtd"
   xmlns="http://www.w3.org/2000/svg"
   xmlns:svg="http://www.w3.org/2000/svg"><sodipodi:namedview
     id="namedview1"
     pagecolor="#ffffff"
     bordercolor="#666666"
     borderopacity="1.0"
     inkscape:showpageshadow="2"
     inkscape:pageopacity="0.0"
     inkscape:pagecheckerboard="0"
     inkscape:deskcolor="#d1d1d1"
     inkscape:document-units="px"
     inkscape:export-bgcolor="#ffffffff"
     inkscape:zoom="2.9354654"
     inkscape:cx="416.45866"
     inkscape:cy="8.6868678"
     inkscape:window-width="2538"
     inkscape:window-height="1387"
     inkscape:window-x="8"
     inkscape:window-y="8"
     inkscape:window-maximized="1"
     inkscape:current-layer="layer1"
     showgrid="true"><inkscape:page
       x="0"
       y="0"
       width="78.316666"
       height="33.866665"
       id="page8"
       margin="0"
       bleed="0" /><inkscape:page
       x="88.316666"
       y="0"
       width="78.316666"
       height="33.866665"
       id="page9"
       margin="0"
       bleed="0"
       inkscape:export-filename="makespace.png"
       inkscape:export-xdpi="96"
       inkscape:export-ydpi="96" /><inkscape:grid
       id="grid13"
       units="px"
       originx="0"
       originy="0"
       spacingx="0.26458333"
       spacingy="0.26458333"
       empcolor="#0099e5"
       empopacity="0.30196078"
       color="#0099e5"
       opacity="0.14901961"
       empspacing="5"
       dotted="false"
       gridanglex="30"
       gridanglez="30"
       visible="true" /></sodipodi:namedview><defs
     id="defs1"><rect
       x="-140.2931"
       y="30.738067"
       width="103.01186"
       height="51.105331"
       id="rect3" /><rect
       x="0"
       y="0"
       width="296"
       height="128"
       id="rect2" /><rect
       x="0"
       y="0"
       width="296"
       height="128"
       id="rect1" /><rect
       x="-140.29311"
       y="30.738068"
       width="55.062149"
       height="54.330502"
       id="rect3-0" /><rect
       x="-140.29311"
       y="30.738068"
       width="433.52039"
       height="53.331526"
       id="rect3-2" /><rect
       x="-140.29311"
       y="30.738068"
       width="113.60653"
       height="39.461001"
       id="rect3-2-6" /><rect
       x="-140.29311"
       y="30.738068"
       width="200.23446"
       height="53.884961"
       id="rect3-5" /><rect
       x="-140.29311"
       y="30.738068"
       width="507.87881"
       height="98.067416"
       id="rect3-2-6-3" /><rect
       x="-140.29311"
       y="30.738068"
       width="507.87881"
       height="98.067416"
       id="rect7" /></defs><g
     inkscape:label="Layer 1"
     inkscape:groupmode="layer"
     id="layer1"><rect
       style="fill:#000000;fill-opacity:1;stroke:none;stroke-width:0.386111"
       id="rect12"
       width="5.0270848"
       height="33.866665"
       x="88.316666"
       y="0" /><text
       xml:space="preserve"
       transform="scale(0.26458333)"
       id="text1"
       style="font-style:normal;font-variant:normal;font-weight:bold;font-stretch:normal;font-size:40px;line-height:1.25;font-family:'Yanone Kaffeesatz';-inkscape-font-specification:'Yanone Kaffeesatz Bold';white-space:pre;shape-inside:url(#rect1);display:inline;fill:#000000;fill-opacity:1;stroke:none" /><text
       xml:space="preserve"
       transform="matrix(0.95616564,0,0,0.95616564,8.6954309,-3.951621)"
       id="text2"
       style="font-style:normal;font-weight:normal;font-size:40px;line-height:1.25;font-family:sans-serif;white-space:pre;shape-inside:url(#rect2);display:inline;fill:#000000;fill-opacity:1;stroke:none"><tspan
         x="0"
         y="36.44385"
         id="tspan5"><tspan
           style="font-weight:bold;font-family:'Yanone Kaffeesatz';-inkscape-font-specification:'Yanone Kaffeesatz Bold'"
           id="tspan1">daniel</tspan></tspan></text><text
       xml:space="preserve"
       transform="matrix(0.15790373,0,0,0.15790373,23.682836,-2.9929884)"
       id="text3"
       style="font-style:normal;font-weight:normal;font-size:40px;line-height:1.25;font-family:sans-serif;white-space:pre;shape-inside:url(#rect3);display:inline;fill:#000000;fill-opacity:1;stroke:none"><tspan
         x="-140.29297"
         y="67.182132"
         id="tspan7"><tspan
           style="font-family:'Yanone Kaffeesatz';-inkscape-font-specification:'Yanone Kaffeesatz'"
           id="tspan6">he/him</tspan></tspan></text><text
       xml:space="preserve"
       transform="matrix(0,-0.17377702,0.17377702,0,82.669135,6.311971)"
       id="text3-9"
       style="font-style:normal;font-weight:normal;font-size:24.3607px;line-height:1.25;font-family:sans-serif;white-space:pre;shape-inside:url(#rect3-5);display:inline;fill:#ffffff;fill-opacity:1;stroke:none"><tspan
         x="-140.29297"
         y="52.291792"
         id="tspan9"><tspan
           style="font-family:'Spleen 8x16';-inkscape-font-specification:'Spleen 8x16'"
           id="tspan8">happy to help</tspan></tspan></text><text
       xml:space="preserve"
       transform="matrix(0.20567166,0,0,0.20567166,123.78554,-7.1984236)"
       id="text3-4"
       style="font-style:normal;font-weight:normal;font-size:41.1659px;line-height:1.25;font-family:sans-serif;white-space:pre;shape-inside:url(#rect3-2);display:inline;fill:#000000;fill-opacity:1;stroke:none"><tspan
         x="-140.29297"
         y="67.160456"
         id="tspan11"><tspan
           style="font-family:'Spleen 8x16';-inkscape-font-specification:'Spleen 8x16'"
           id="tspan10">Board Member</tspan></tspan></text><text
       xml:space="preserve"
       transform="matrix(0.20567166,0,0,0.20567166,123.78554,3.093729)"
       id="text3-4-9"
       style="font-style:normal;font-weight:normal;font-size:40px;line-height:0.95;font-family:sans-serif;white-space:pre;shape-inside:url(#rect3-2-6);display:inline;fill:#000000;fill-opacity:1;stroke:none"><tspan
         x="-140.29297"
         y="60.128906"
         id="tspan13"><tspan
           style="font-family:'Spleen 8x16';-inkscape-font-specification:'Spleen 8x16'"
           id="tspan12">Owner</tspan></tspan></text><text
       xml:space="preserve"
       transform="matrix(0.24666094,0,0,0.24666094,130.59826,9.8774638)"
       id="text3-4-9-1"
       style="font-style:normal;font-weight:normal;font-size:25.7438px;line-height:1;font-family:sans-serif;white-space:pre;shape-inside:url(#rect3-2-6-3);display:inline;fill:#000000;fill-opacity:1;stroke:none"><tspan
         x="-140.29297"
         y="51.121935"
         id="tspan15"><tspan
           style="font-family:'Spleen 12x24';-inkscape-font-specification:'Spleen 12x24'"
           id="tspan14">Bambu, Markforged,</tspan></tspan></text><g
       id="g7"
       transform="matrix(0.92398979,0,0,0.92398979,12.608135,0.09112813)"><g
         id="g12"
         style="fill:#474747;fill-opacity:1"><rect
           style="fill:#474747;fill-opacity:1;stroke:none;stroke-width:0.529167"
           id="rect10"
           width="3.5607274"
           height="6.0191507"
           x="144.93349"
           y="7.3305507" /><rect
           style="fill:#474747;fill-opacity:1;stroke:none;stroke-width:0.529167"
           id="rect10-3"
           width="3.5607274"
           height="6.0191507"
           x="153.62349"
           y="7.3305507" /><rect
           style="fill:#474747;fill-opacity:1;stroke:none;stroke-width:0.529167"
           id="rect10-9"
           width="3.5607274"
           height="6.0191507"
           x="162.31349"
           y="7.3305507" /><path
           id="path10"
           style="fill:#474747;fill-opacity:1;stroke:none;stroke-width:0.529167"
           d="m 151.05899,1.1988932 a 6.1253648,6.0755067 0 0 0 -6.12572,6.0750813 6.1253648,6.0755067 0 0 0 0.004,0.056327 h 3.56309 a 2.5646362,2.5646362 0 0 1 -0.006,-0.056327 2.5646362,2.5646362 0 0 1 2.5647,-2.5641846 2.5646362,2.5646362 0 0 1 2.5647,2.5641846 2.5646362,2.5646362 0 0 1 -0.002,0.056327 h 3.56102 a 6.1253648,6.0755067 0 0 0 0.002,-0.056327 6.1253648,6.0755067 0 0 0 -6.12521,-6.0750813 z" /></g><path
         id="path10-9"
         style="fill:#000000;fill-opacity:1;stroke:none;stroke-width:0.529167"
         d="m 159.7489,1.1988932 a 6.1253648,6.0755067 0 0 0 -6.12521,6.0750813 6.1253648,6.0755067 0 0 0 0.004,0.056327 h -0.006 a 2.5646362,2.5646362 0 0 1 0.002,0.056327 2.5646362,2.5646362 0 0 1 -2.5647,2.5641845 2.5646362,2.5646362 0 0 1 -2.5647,-2.5641845 2.5646362,2.5646362 0 0 1 0.006,-0.056327 h -3.56309 a 6.1253648,6.0755067 0 0 0 -0.004,0.056327 6.1253648,6.0755067 0 0 0 6.12572,6.0750809 h 5.2e-4 a 6.1253648,6.0755067 0 0 0 6.12521,-6.0750809 6.1253648,6.0755067 0 0 0 -0.002,-0.056327 h 0.008 a 2.5646362,2.5646362 0 0 1 -0.006,-0.056327 2.5646362,2.5646362 0 0 1 2.5647,-2.5641846 2.5646362,2.5646362 0 0 1 2.5647,2.5641846 2.5646362,2.5646362 0 0 1 -0.002,0.056327 h 3.56102 a 6.1253648,6.0755067 0 0 0 0.002,-0.056327 6.1253648,6.0755067 0 0 0 -6.12521,-6.0750813 z" /></g><text
       xml:space="preserve"
       transform="matrix(0.24666094,0,0,0.24666094,130.59826,17.021215)"
       id="text7"
       style="font-style:normal;font-weight:normal;font-size:25.7438px;line-height:1;font-family:sans-serif;white-space:pre;shape-inside:url(#rect7);display:inline;fill:#000000;fill-opacity:1;stroke:none"><tspan
         x="-140.29297"
         y="51.121935"
         id="tspan17"><tspan
           style="font-family:'Spleen 12x24';-inkscape-font-specification:'Spleen 12x24'"
           id="tspan16">Form3, BikeSpace</tspan></tspan></text></g></svg>
